<?xml version="1.0" encoding="utf-8"?>
<!-- Generator: Adobe Illustrator 16.0.0, SVG Export Plug-In . SVG Version: 6.00 Build 0)  -->
<!DOCTYPE svg PUBLIC "-//W3C//DTD SVG 1.1//EN" "http://www.w3.org/Graphics/SVG/1.1/DTD/svg11.dtd">
<svg version="1.1" id="Layer_1" xmlns="http://www.w3.org/2000/svg" xmlns:xlink="http://www.w3.org/1999/xlink" x="0px" y="0px"
	 width="24px" height="24px" viewBox="0 0 24 24" enable-background="new 0 0 24 24" xml:space="preserve">
<g>
	<path fill="#010101" d="M23.523,13.326c-0.269,0-0.48,0.215-0.48,0.479v6.205H0.956v-6.205c0-0.264-0.214-0.479-0.478-0.479
		S0,13.541,0,13.805v6.685c0,0.264,0.213,0.477,0.478,0.477h23.045c0.264,0,0.477-0.213,0.477-0.479v-6.682
		C24,13.541,23.787,13.326,23.523,13.326z"/>
	<path fill="#010101" d="M7.319,10.135c-0.214,0.175-0.244,0.49-0.07,0.704l4.363,5.364c0.189,0.232,0.586,0.232,0.775,0
		l4.364-5.364c0.176-0.214,0.144-0.529-0.071-0.703c-0.092-0.075-0.203-0.112-0.314-0.112c-0.145,0-0.289,0.063-0.389,0.185
		l-3.479,4.273V3.466c0-0.273-0.224-0.5-0.5-0.5s-0.5,0.227-0.5,0.5V14.48l-3.476-4.271C7.851,9.994,7.537,9.961,7.319,10.135z"/>
</g>
</svg>
