<?xml version="1.0" encoding="utf-8"?>
<!-- Generator: Adobe Illustrator 16.0.0, SVG Export Plug-In . SVG Version: 6.00 Build 0)  -->
<!DOCTYPE svg PUBLIC "-//W3C//DTD SVG 1.1//EN" "http://www.w3.org/Graphics/SVG/1.1/DTD/svg11.dtd">
<svg version="1.1" id="Layer_1" xmlns="http://www.w3.org/2000/svg" xmlns:xlink="http://www.w3.org/1999/xlink" x="0px" y="0px"
	 width="24px" height="24px" viewBox="0 0 24 24" enable-background="new 0 0 24 24" xml:space="preserve">
<g>
	<path fill="#010101" d="M23.523,13.326c-0.268,0-0.48,0.215-0.48,0.479v6.205H0.956v-6.205c0-0.264-0.214-0.479-0.478-0.479
		S0,13.541,0,13.805v6.684c0,0.264,0.213,0.477,0.478,0.477h23.045c0.264,0,0.477-0.213,0.477-0.479v-6.682
		C24,13.541,23.787,13.326,23.523,13.326z"/>
	<path fill="#010101" d="M8.022,9.134l3.476-4.272v11.015c0,0.273,0.224,0.5,0.5,0.5s0.5-0.227,0.5-0.5V4.861l3.478,4.273
		c0.1,0.122,0.244,0.185,0.389,0.185c0.111,0,0.223-0.037,0.314-0.112c0.215-0.174,0.248-0.489,0.072-0.703L12.387,3.14
		c-0.189-0.233-0.586-0.233-0.775,0L7.249,8.504C7.075,8.718,7.105,9.033,7.319,9.208C7.537,9.382,7.851,9.349,8.022,9.134z"/>
</g>
</svg>
