<?xml version="1.0" ?><!DOCTYPE svg  PUBLIC '-//W3C//DTD SVG 1.1//EN'  'http://www.w3.org/Graphics/SVG/1.1/DTD/svg11.dtd'><svg enable-background="new 0 0 128 128" height="128px" id="Layer_1" version="1.1" viewBox="0 0 128 128" width="128px" xml:space="preserve" xmlns="http://www.w3.org/2000/svg" xmlns:xlink="http://www.w3.org/1999/xlink"><g><circle cx="64" cy="64" fill="#EDBF4A" r="62"/><polygon fill="#050505" opacity="0.2" points="18.389,95.874 46.727,90.058 63.394,95.874 67.17,95.87 93.561,90.083    112.029,95.874 112.809,95.87 87.017,86.543 40.861,86.361 15.07,95.87  "/><g><g><polygon fill="#35495E" points="93.46,36.066 92.863,33.877 92.051,30.898 78.503,27.758 82.952,58.332 86.646,83.727      108.587,91.52    "/><polygon fill="#FFFFFF" points="78.503,27.758 92.051,30.898 108.587,91.52 86.646,83.727 87.078,86.695 112.87,96.022      93.687,30.096 78.332,26.577    "/></g><g><polygon fill="#35495E" points="82.952,58.332 78.503,27.758 63,31.363 63,79.083 63.333,93.3 86.646,83.727    "/><polygon fill="#FFFFFF" points="64,92.697 64,96.022 87.078,86.695 86.646,83.727    "/><polygon fill="#FFFFFF" points="78.332,26.577 64,30.096 64,31.363 78.503,27.758    "/></g><g><polyline fill="#35495E" points="64,93 64,79.083 64,31.363 49.497,27.758 41.243,84.336    "/><polygon fill="#FFFFFF" points="64,30.096 49.668,26.577 49.497,27.758 64,31.363    "/><polygon fill="#FFFFFF" points="41.354,83.727 40.922,86.695 64,96.022 64,92.697    "/></g><g><polygon fill="#35495E" points="35.949,30.898 19.413,91.52 41.354,83.727 49.497,27.758    "/><polygon fill="#FFFFFF" points="19.413,91.52 35.949,30.898 49.497,27.758 49.668,26.577 34.313,30.096 15.13,96.022      40.922,86.695 41.354,83.727    "/></g></g><ellipse cx="86.314" cy="41.844" fill="#292B2D" opacity="0.4" rx="4.926" ry="2.797" transform="matrix(-0.9703 -0.2418 0.2418 -0.9703 159.9487 103.3171)"/><ellipse cx="35.314" cy="81.844" fill="#292B2D" opacity="0.4" rx="4.926" ry="2.797" transform="matrix(-0.972 0.2352 -0.2352 -0.972 88.8861 153.0863)"/><path d="M39,80.883l2.958-1.309   l12.667,2.434c0,0,3.815,0.68,6,0.942c1.178,0.141,2.331,0.054,3.375-0.025c14.254-1.081,15.8-10.368,8.341-13.814   c-8.763-4.048-5.903-10.186,0.531-12.299c5.275-1.732,5.382-1.763,9.401-3.146c0.411-0.141,4.413,0.008,5.915-1.867   c0,0,3.375-4.312-1.541-9.5" fill="none" stroke="#D4D5D6" stroke-dasharray="3.1866" stroke-miterlimit="10" stroke-width="2"/><path d="M93.687,30.096l-15.355-3.518l0.172,1.181l0.63,4.329l0,0l0.071,0.49l0.486,3.341l0.01,0.072   l0,0l0.066,0.455l0.28,1.921l0,0l0.537,3.69l0,0l6.063,41.671l0.432,2.969l25.792,9.327L93.687,30.096z" fill="#070707" opacity="0.2"/><polygon fill="#020202" opacity="0.2" points="49.668,26.577 49.497,27.758 49.352,28.748 49.352,28.748 49.307,29.059    48.804,32.517 48.727,33.049 48.727,33.049 48.459,34.892 46.848,45.963 46.848,45.963 46.313,49.643 46.27,49.937 46.27,49.937    45.147,57.651 45.147,57.651 45.108,57.924 43.411,69.585 43.411,69.585 42.979,72.557 42.532,75.628 42.532,75.628 42.497,75.866    41.682,81.473 41.682,81.473 41.354,83.727 40.922,86.695 64,96.022 64,92.697 64,79.083 64,69.567 64,65.118 64,62.409 64,51.955    64,50.617 64,45.122 64,44.468 64,40.198 64,39.598 64,37.055 64,36.017 64,32.977 64,32.451 64,31.363 64,30.096  "/><g><path d="M34,48v33.742c0,0,0.025,0.447,1,0.447c1.056,0,1-0.447,1-0.447V48H34z" fill="#689EAD"/><rect fill="#0A0A0A" height="2" opacity="0.2" width="2" x="34" y="54.299"/><g><circle cx="35.081" cy="38.162" fill="#D04946" r="16.368"/><path d="M23.897,35.944c-1.391,6.494,0.627,10.193-0.136,10.804     c-0.818,0.655-3.747-4.641-2.598-11.676c1.202-7.365,7.589-11.021,8.098-10.186C29.805,25.783,25.339,29.21,23.897,35.944z" fill="#FFFFFF" opacity="0.8"/><path d="M43.055,23.869c3.82,2.996,6.277,7.651,6.277,12.882c0,9.04-7.328,16.368-16.368,16.368     c-2.896,0-5.614-0.755-7.974-2.075c2.781,2.181,6.283,3.486,10.091,3.486c9.04,0,16.368-7.328,16.368-16.368     C51.449,32.018,48.062,26.668,43.055,23.869z" fill="#050505" opacity="0.2"/></g></g><g><path d="M85.5,29.253v12.761c0,0,0.012,0.223,0.5,0.223c0.528,0,0.5-0.223,0.5-0.223V29.253H85.5z" fill="#689EAD"/><rect fill="#0A0A0A" height="1" opacity="0.2" width="1" x="85.5" y="32.299"/><g><circle cx="86.081" cy="24.162" fill="#A04089" r="8.184"/><path d="M80.489,23.053c-0.696,3.247,0.314,5.097-0.068,5.402c-0.409,0.327-1.873-2.32-1.299-5.838     c0.601-3.683,3.795-5.51,4.049-5.093C83.443,17.972,81.21,19.686,80.489,23.053z" fill="#FFFFFF" opacity="0.8"/><path d="M90.068,17.016c1.91,1.498,3.138,3.825,3.138,6.441c0,4.52-3.664,8.184-8.184,8.184     c-1.448,0-2.807-0.378-3.987-1.037c1.39,1.091,3.141,1.743,5.045,1.743c4.52,0,8.184-3.664,8.184-8.184     C94.265,21.09,92.571,18.415,90.068,17.016z" fill="#050505" opacity="0.2"/></g></g></g></svg>